<?xml version="1.0" encoding="utf-8"?>
<!-- Generator: Adobe Illustrator 22.0.1, SVG Export Plug-In . SVG Version: 6.00 Build 0)  -->
<svg version="1.1" id="圖層_1" xmlns="http://www.w3.org/2000/svg" xmlns:xlink="http://www.w3.org/1999/xlink" x="0px" y="0px"
	 viewBox="0 0 28 28" style="enable-background:new 0 0 28 28;" xml:space="preserve">
<style type="text/css">
	.st0{fill:#F5F7FA;}
</style>
<g>
	<path class="st0" d="M14,0C6.3,0,0,6.3,0,14s6.3,14,14,14s14-6.3,14-14S21.7,0,14,0z M6.9,9h14.2c0.8,0,0.4,0.9,0,1.1
		c-0.4,0.2-6.1,3.3-6.3,3.4c-0.2,0.1-0.5,0.2-0.8,0.2c-0.3,0-0.5-0.1-0.8-0.2C13,13.3,7.3,10.3,6.9,10C6.5,9.8,6.1,9,6.9,9z
		 M21.6,18.2c0,0.4-0.5,0.8-0.8,0.8H7.3c-0.4,0-0.8-0.5-0.8-0.8c0,0,0-6,0-6.1s0-0.4,0.3-0.2c0.5,0.2,6.2,3.2,6.5,3.4
		c0.3,0.1,0.5,0.2,0.8,0.2c0.3,0,0.5,0,0.8-0.2c0.3-0.1,6-3.1,6.5-3.4c0.3-0.2,0.3,0,0.3,0.2C21.6,12.2,21.6,18.2,21.6,18.2z"/>
</g>
</svg>
