<?xml version="1.0" encoding="utf-8"?>
<!-- Generator: Adobe Illustrator 22.0.1, SVG Export Plug-In . SVG Version: 6.00 Build 0)  -->
<svg version="1.1" id="圖層_1" xmlns="http://www.w3.org/2000/svg" xmlns:xlink="http://www.w3.org/1999/xlink" x="0px" y="0px"
	 viewBox="0 0 28 28" style="enable-background:new 0 0 28 28;" xml:space="preserve">
<style type="text/css">
	.st0{fill:#F5F7FA;}
</style>
<path class="st0" d="M14,0c-2.8,0-5.5,0.8-7.8,2.4C3.9,3.9,2.1,6.1,1.1,8.6C0,11.2-0.3,14,0.3,16.7s1.9,5.2,3.8,7.2s4.5,3.3,7.2,3.8
	c2.7,0.5,5.5,0.3,8.1-0.8c2.6-1.1,4.7-2.9,6.3-5.2c1.5-2.3,2.4-5,2.4-7.8c0-1.8-0.4-3.7-1.1-5.4c-0.7-1.7-1.7-3.2-3-4.5
	c-1.3-1.3-2.8-2.3-4.5-3C17.7,0.4,15.8,0,14,0L14,0z M18.5,21.2c-0.1,0.1-0.1,0.2-0.2,0.3c-0.1,0.1-0.2,0.2-0.4,0.2
	c-0.1,0-0.3,0.1-0.4,0.1c-0.1,0-0.3-0.1-0.4-0.1l-3.8-3L10.8,21c-0.1,0-0.1,0.1-0.2,0.1s-0.1,0-0.2,0l0.5-4.2l0,0l0-0.1
	c0,0,6.8-6.2,7.1-6.5c0.3-0.3,0.2-0.3,0.2-0.3c0-0.3-0.5,0-0.5,0l-9.1,5.8l-3.8-1.3c0,0-0.6-0.2-0.6-0.7c-0.1-0.5,0.7-0.7,0.7-0.7
	l15-6c0,0,1.2-0.5,1.2,0.4L18.5,21.2z"/>
</svg>
