<?xml version="1.0" encoding="utf-8"?>
<!-- Generator: Adobe Illustrator 22.0.1, SVG Export Plug-In . SVG Version: 6.00 Build 0)  -->
<svg version="1.1" id="圖層_1" xmlns="http://www.w3.org/2000/svg" xmlns:xlink="http://www.w3.org/1999/xlink" x="0px" y="0px"
	 viewBox="0 0 28 28" style="enable-background:new 0 0 28 28;" xml:space="preserve">
<style type="text/css">
	.st0{fill:#F5F7FA;}
</style>
<g>
	<path class="st0" d="M14,0C6.3,0,0,6.3,0,14s6.3,14,14,14s14-6.3,14-14S21.7,0,14,0z M20.7,10.6c0,0.2,0,0.3,0,0.4
		c0,1.3-0.2,2.6-0.7,3.8c-0.5,1.2-1.2,2.3-2.1,3.2c-0.9,0.9-2,1.6-3.2,2.1c-1.2,0.5-2.5,0.7-3.8,0.7c-1.9,0-3.7-0.5-5.3-1.6
		c0.3,0,0.6,0.1,0.8,0.1c1.5,0,3-0.5,4.3-1.5c-0.7,0-1.4-0.3-2-0.7c-0.6-0.4-1-1-1.2-1.7c0.2,0,0.4,0.1,0.6,0.1
		c0.3,0,0.6-0.1,0.9-0.1c-0.8-0.2-1.5-0.6-2-1.2c-0.5-0.6-0.8-1.4-0.8-2.2v0c0.5,0.3,1,0.4,1.6,0.4c-0.5-0.3-0.9-0.7-1.1-1.2
		c-0.3-0.5-0.4-1.1-0.4-1.6c0-0.6,0.2-1.2,0.5-1.7c0.9,1.1,1.9,1.9,3.2,2.6c1.2,0.6,2.6,1,3.9,1c-0.2-0.7-0.1-1.5,0.2-2.2
		c0.3-0.7,0.8-1.3,1.5-1.6c0.7-0.4,1.4-0.5,2.2-0.4c0.8,0.1,1.4,0.5,2,1.1c0.8-0.2,1.5-0.4,2.2-0.8c-0.3,0.8-0.8,1.5-1.5,1.9
		c0.7-0.1,1.4-0.3,2-0.5C21.9,9.5,21.4,10.1,20.7,10.6z"/>
</g>
</svg>
